<svg width="16" height="35" viewBox="0 0 16 35" fill="none" xmlns="http://www.w3.org/2000/svg">
<path fill-rule="evenodd" clip-rule="evenodd" d="M1.68319 1.72403C3.07803 0.307767 5.25334 0 7.96591 0C10.6811 0 12.8655 0.30899 14.2755 1.71671C15.6897 3.12871 16 5.31978 16 8.0338C16 10.7452 15.6908 12.9328 14.2696 14.3328C13.0739 15.5107 11.3246 15.8981 9.174 15.9814L9.13601 19.0229C11.3109 19.1156 13.0742 19.5174 14.2755 20.7167C15.6897 22.1287 16 24.3198 16 27.0338C16 29.7452 15.6908 31.9328 14.2696 33.3328C12.8561 34.7253 10.669 35.013 7.9599 34.9996C5.26068 34.9861 3.08691 34.6963 1.69192 33.3082C0.289235 31.9124 0 29.735 0 27.0338C0 24.3298 0.290566 22.138 1.68319 20.724C2.85283 19.5364 4.57126 19.1283 6.69509 19.0274L6.73328 15.9699C4.59995 15.8687 2.8688 15.4793 1.69192 14.3082C0.289235 12.9124 0 10.735 0 8.0338C0 5.32985 0.290566 3.13804 1.68319 1.72403ZM9.2048 13.5151L9.22257 12.0928C9.23099 11.4183 8.6915 10.8647 8.01758 10.8563C7.34366 10.8478 6.79051 11.3878 6.78208 12.0622L6.76406 13.5054C4.85067 13.4035 3.92252 13.0698 3.40609 12.5559C2.79873 11.9516 2.44068 10.775 2.44068 8.0338C2.44068 5.29533 2.7974 4.08562 3.41481 3.45872C4.03002 2.83407 5.22749 2.46153 7.96591 2.46153C10.7017 2.46153 11.9242 2.83285 12.5584 3.46604C13.1883 4.09495 13.5593 5.3054 13.5593 8.0338C13.5593 10.7648 13.1871 11.9583 12.5642 12.5719C12.0372 13.091 11.0989 13.4267 9.2048 13.5151ZM6.66427 21.4951C4.82608 21.5997 3.92232 21.9434 3.41481 22.4587C2.7974 23.0856 2.44068 24.2953 2.44068 27.0338C2.44068 29.775 2.79873 30.9516 3.40609 31.5559C4.02113 32.1679 5.22015 32.5244 7.97192 32.5381C10.7138 32.5517 11.9336 32.1931 12.5642 31.5719C13.1871 30.9583 13.5593 29.7648 13.5593 27.0338C13.5593 24.3054 13.1883 23.0949 12.5584 22.466C12.02 21.9285 11.0576 21.5797 9.10524 21.4866L9.08698 22.9491C9.07855 23.6236 8.5254 24.1635 7.85148 24.1551C7.17756 24.1467 6.63806 23.5931 6.64649 22.9186L6.66427 21.4951Z" fill="#C3F86A"/>
</svg>
