<svg width="43" height="22" viewBox="0 0 43 22" fill="none" xmlns="http://www.w3.org/2000/svg">
<path fill-rule="evenodd" clip-rule="evenodd" d="M33.8253 4.52481C36.8344 6.263 39.3892 8.61854 41.2873 11.4016C39.3433 14.2519 36.7106 16.6537 33.6067 18.4032C32.4638 19.8432 30.9828 21.0703 29.2605 22C34.877 20.3024 39.6269 16.813 42.7328 12.2582C43.0891 11.7355 43.0891 11.0678 42.7328 10.5451C39.7424 6.15968 35.228 2.76163 29.8832 1C31.4493 1.94377 32.7907 3.14217 33.8253 4.52481ZM12.729 1.13119C7.55381 2.92725 3.18526 6.26613 0.267357 10.5451C-0.0891191 11.0678 -0.0891191 11.7355 0.267357 12.2582C3.29939 16.7045 7.89781 20.1359 13.34 21.8758C11.6431 20.9221 10.1901 19.6766 9.07833 18.2225C6.11145 16.4898 3.59065 14.155 1.71306 11.4016C3.54611 8.71353 5.99232 6.42433 8.8681 4.70501C9.87376 3.31014 11.1879 2.09561 12.729 1.13119Z" fill="white"/>
<path fill-rule="evenodd" clip-rule="evenodd" d="M31.199 7.70956C30.1263 5.18465 27.9281 3.09305 24.9653 2.1297C19.5961 0.384069 13.732 2.99891 11.8008 7.97534L10 8C10.0469 7.85626 10.097 7.71277 10.1504 7.56965C12.3435 1.68946 19.2266 -1.41747 25.5247 0.630115C29.1902 1.82192 31.8495 4.49726 33 7.68491L31.199 7.70956Z" fill="white"/>
<path d="M11.9162 8.99316C11.6438 9.77526 10.789 10.1886 10.0068 9.91618C9.22474 9.64382 8.81145 8.78897 9.08382 8.00687C9.35618 7.22472 10.211 6.81147 10.9931 7.0838C11.7753 7.35617 12.1885 8.21101 11.9162 8.99316Z" fill="white"/>
<path fill-rule="evenodd" clip-rule="evenodd" d="M11.8011 14.2904C12.8737 16.8154 15.0717 18.907 18.0345 19.8704C23.4038 21.616 29.268 19.0011 31.199 14.0247L33 14C32.9529 14.1437 32.9028 14.2872 32.8495 14.4304C30.6565 20.3105 23.7733 23.4175 17.4751 21.3699C13.8096 20.1781 11.1503 17.5027 10 14.3151L11.8011 14.2904Z" fill="white"/>
<path d="M30.1118 13.0069C30.475 12.2247 31.6144 11.8115 32.6575 12.0838C33.7001 12.3562 34.2515 13.211 33.8883 13.9932C33.5251 14.7753 32.3851 15.1886 31.3425 14.9162C30.2994 14.6438 29.7486 13.789 30.1118 13.0069Z" fill="white"/>
<path fill-rule="evenodd" clip-rule="evenodd" d="M21.4997 19C26.1942 19 30 15.6421 30 11.5C30 7.35785 26.1942 4 21.4997 4C16.8053 4 13 7.35785 13 11.5C13 15.6421 16.8053 19 21.4997 19ZM24.269 9.47802C24.269 10.38 23.7104 11.1667 22.8814 11.5836L23.5684 15.1094C23.6427 15.4913 23.3095 15.8403 22.87 15.8403H20.085C19.6461 15.8403 19.3124 15.4913 19.3871 15.1094L20.0823 11.5392C19.3004 11.1125 18.7792 10.3489 18.7792 9.47802C18.7792 8.14046 20.0086 7.05613 21.5241 7.05613C23.0402 7.05613 24.269 8.14046 24.269 9.47802Z" fill="white"/>
</svg>
