<svg width="165" height="56" viewBox="0 0 165 56" fill="none" xmlns="http://www.w3.org/2000/svg">
<path fill-rule="evenodd" clip-rule="evenodd" d="M52.3005 12.5295C52.3005 8.26229 51.778 6.35586 50.8743 5.37242C50.0007 4.42165 48.2993 3.8381 44.3203 3.83809C40.3277 3.83808 38.6014 4.3985 37.7057 5.35683C36.7879 6.33885 36.2408 8.2642 36.2408 12.6357L36.2408 22.602C36.2408 23.6618 35.4111 24.5211 34.3877 24.5211C33.3643 24.5211 32.5347 23.662 32.5347 22.6021V12.6357C32.5347 8.32664 32.9808 4.89367 35.0427 2.6875C37.1268 0.457636 40.3667 -1.13584e-05 44.3203 2.1143e-10C48.2873 1.13603e-05 51.5026 0.488622 53.5591 2.72653C55.5855 4.93177 56.0066 8.33053 56.0066 12.5295L56.0066 22.602C56.0066 23.6619 55.177 24.5211 54.1536 24.5211C53.1302 24.5212 52.3005 23.662 52.3005 22.6021V12.5295ZM126.102 5.32704C126.954 6.31598 127.447 8.25042 127.447 12.5295V22.6021C127.447 23.662 128.277 24.5212 129.301 24.5211C130.324 24.5211 131.154 23.6619 131.154 22.602V12.5295C131.154 8.3424 130.762 4.97165 128.867 2.77191C126.904 0.493298 123.819 1.13774e-05 120.082 2.1143e-10C116.359 -1.1321e-05 113.25 0.461437 111.26 2.73258C109.331 4.93396 108.917 8.33914 108.917 12.6357V22.6021C108.917 23.662 109.747 24.5211 110.77 24.5211C111.793 24.5211 112.623 23.6618 112.623 22.602V12.6357C112.623 8.2517 113.14 6.29856 114.005 5.31176C114.808 4.3947 116.355 3.83808 120.082 3.83809C123.794 3.8381 125.318 4.41698 126.102 5.32704ZM84.7063 2.68815C86.8243 0.479879 90.1275 2.1143e-10 94.2464 2.1143e-10C98.3694 2.1143e-10 101.686 0.481786 103.827 2.67675C105.975 4.87838 106.446 8.29474 106.446 12.5265C106.446 16.7542 105.976 20.1652 103.818 22.3481C101.672 24.5192 98.351 24.9679 94.2373 24.9469C90.1386 24.926 86.8378 24.4741 84.7196 22.3097C82.5896 20.1334 82.1505 16.7383 82.1505 12.5265C82.1505 8.31044 82.5917 4.89292 84.7063 2.68815ZM87.3357 5.39294C86.3982 6.3704 85.8566 8.25662 85.8566 12.5265C85.8566 16.8007 86.4002 18.6352 87.3225 19.5776C88.2564 20.5318 90.0771 21.0876 94.2556 21.1089C98.4191 21.1301 100.271 20.5711 101.229 19.6025C102.175 18.6456 102.74 16.7848 102.74 12.5265C102.74 8.27232 102.176 6.38495 101.22 5.40434C100.257 4.41705 98.4006 3.83809 94.2464 3.83809C90.0882 3.83809 88.2699 4.41896 87.3357 5.39294ZM136.303 0.426436C137.326 0.426436 138.156 1.28562 138.156 2.34548V22.6021C138.156 23.6619 137.326 24.5211 136.303 24.5211C135.279 24.5211 134.45 23.6619 134.45 22.6021V2.34548C134.45 1.28562 135.279 0.426436 136.303 0.426436ZM10.1637 30.1083C6.93995 30.2657 4.33147 30.9023 2.55588 32.7535C0.441216 34.9583 0 38.3758 0 42.5919C0 46.8036 0.439195 50.1987 2.56913 52.3751C4.68739 54.5394 7.98819 54.9914 12.0869 55.0123C16.2005 55.0333 19.5216 54.5846 21.668 52.4135C23.826 50.2306 24.2955 46.8196 24.2955 42.5919C24.2955 38.3601 23.8243 34.9437 21.6769 32.7421C19.8523 30.8716 17.1738 30.2452 13.8702 30.1009L13.9328 24.9185C17.1973 24.7885 19.8528 24.1843 21.668 22.3481C23.826 20.1652 24.2955 16.7542 24.2955 12.5265C24.2955 8.29474 23.8243 4.87838 21.6769 2.67675C19.5359 0.481786 16.219 2.1143e-10 12.096 2.1143e-10C7.97704 2.1143e-10 4.6739 0.479879 2.55588 2.68815C0.441216 4.89292 0 8.31044 0 12.5265C0 16.7383 0.439195 20.1334 2.56913 22.3097C4.35661 24.1361 6.98614 24.7431 10.2266 24.9007L10.1637 30.1083ZM10.1173 33.956C7.32753 34.1191 5.95572 34.655 5.1853 35.4583C4.24778 36.4358 3.7061 38.322 3.7061 42.5919C3.7061 46.8661 4.2498 48.7006 5.17205 49.6429C6.10597 50.5972 7.92664 51.1529 12.1051 51.1743C16.2686 51.1955 18.1208 50.6365 19.0784 49.6678C20.0243 48.711 20.5894 46.8502 20.5894 42.5919C20.5894 38.3377 20.026 36.4503 19.0695 35.4697C18.2518 34.6313 16.7899 34.0874 13.8238 33.9424L13.7983 36.0591C13.7855 37.1189 12.9456 37.9672 11.9222 37.954C10.8989 37.9408 10.0797 37.0709 10.0925 36.0111L10.1173 33.956ZM10.273 21.0581C7.36623 20.8994 5.95641 20.379 5.17205 19.5776C4.2498 18.6352 3.7061 16.8007 3.7061 12.5265C3.7061 8.25662 4.24778 6.3704 5.1853 5.39294C6.11946 4.41896 7.9378 3.83809 12.096 3.83809C16.2502 3.83809 18.1065 4.41705 19.0695 5.40434C20.026 6.38495 20.5894 8.27232 20.5894 12.5265C20.5894 16.7848 20.0243 18.6456 19.0784 19.6025C18.2784 20.4117 16.854 20.935 13.9792 21.073L14.0042 19.0009C14.017 17.9411 13.1978 17.0713 12.1744 17.058C11.1511 17.0448 10.3112 17.8932 10.2984 18.9529L10.273 21.0581ZM28.4145 0.426436C29.4379 0.426436 30.2676 1.28562 30.2676 2.34548V22.6021C30.2676 23.6619 29.4379 24.5211 28.4145 24.5211C27.3911 24.5211 26.5615 23.6619 26.5615 22.6021V2.34548C26.5615 1.28562 27.3911 0.426436 28.4145 0.426436ZM61.9741 2.13206C61.9741 1.0722 61.1444 0.21302 60.121 0.21303C59.0976 0.213041 58.268 1.07224 58.268 2.1321L58.268 3.73139L58.268 12.2073C58.268 15.4358 58.7651 18.6634 60.7389 21.0724C62.7676 23.5486 65.9899 24.7342 70.4691 24.7342H80.0928C81.1162 24.7342 81.9458 23.875 81.9458 22.8151C81.9458 21.7553 81.1161 20.8961 80.0927 20.8961H70.4691C66.5664 20.8961 64.6146 19.8706 63.5648 18.5892C62.46 17.2408 61.9741 15.1645 61.9741 12.2074L61.9741 10.2352H72.6855C73.7089 10.2352 74.5386 9.37606 74.5386 8.3162C74.5386 7.25634 73.7089 6.39715 72.6855 6.39715H61.9741L61.9741 3.73126L61.9741 2.13206ZM152.827 4.58447C148.695 4.58446 146.827 5.09558 145.872 5.97788C144.993 6.7898 144.434 8.36822 144.434 12.2125C144.434 16.072 144.972 17.6739 145.857 18.506C146.81 19.4015 148.696 19.9368 152.929 19.9368H162.553C163.576 19.9368 164.406 20.796 164.406 21.8559C164.406 22.9157 163.576 23.7749 162.553 23.7749H152.929C148.78 23.7749 145.492 23.3459 143.367 21.3484C141.174 19.2875 140.728 16.0676 140.728 12.2124C140.728 8.34192 141.204 5.14681 143.405 3.11392C145.529 1.15139 148.783 0.746372 152.827 0.746377L162.553 0.746375C163.576 0.746367 164.406 1.60555 164.406 2.66541C164.406 3.72527 163.576 4.58446 162.553 4.58447L152.827 4.58447Z" fill="#C3F86A"/>
</svg>
